<mxfile host="app.diagrams.net" modified="2023-04-02T01:24:54.609Z" agent="Mozilla/5.0 (Windows NT 10.0; Win64; x64) AppleWebKit/537.36 (KHTML, like Gecko) Chrome/111.0.0.0 Safari/537.36 Edg/111.0.1661.54" etag="WEsxlt1z8ChCQRDuq06u" version="21.1.2" type="device">
  <diagram name="Page-1" id="HsBNGUcYvVnLuP2QphaG">
    <mxGraphModel dx="2496" dy="904" grid="1" gridSize="10" guides="1" tooltips="1" connect="1" arrows="1" fold="1" page="1" pageScale="1" pageWidth="850" pageHeight="1100" math="0" shadow="0">
      <root>
        <mxCell id="0" />
        <mxCell id="1" parent="0" />
        <mxCell id="suyXKOmsgJLqjtezGQy3-123" value="" style="rounded=1;whiteSpace=wrap;html=1;" vertex="1" parent="1">
          <mxGeometry x="-340" y="351" width="250" height="460" as="geometry" />
        </mxCell>
        <mxCell id="suyXKOmsgJLqjtezGQy3-53" value="" style="rounded=1;whiteSpace=wrap;html=1;" vertex="1" parent="1">
          <mxGeometry x="1201" y="355.5" width="266" height="574" as="geometry" />
        </mxCell>
        <mxCell id="suyXKOmsgJLqjtezGQy3-23" value="" style="rounded=1;whiteSpace=wrap;html=1;" vertex="1" parent="1">
          <mxGeometry x="935" y="353" width="190" height="487" as="geometry" />
        </mxCell>
        <mxCell id="suyXKOmsgJLqjtezGQy3-2" style="edgeStyle=orthogonalEdgeStyle;rounded=0;orthogonalLoop=1;jettySize=auto;html=1;exitX=0.5;exitY=1;exitDx=0;exitDy=0;" edge="1" parent="1" source="suyXKOmsgJLqjtezGQy3-1">
          <mxGeometry relative="1" as="geometry">
            <mxPoint x="419.8333333333335" y="170" as="targetPoint" />
          </mxGeometry>
        </mxCell>
        <mxCell id="suyXKOmsgJLqjtezGQy3-1" value="Start" style="rounded=1;whiteSpace=wrap;html=1;" vertex="1" parent="1">
          <mxGeometry x="370" y="110" width="100" height="20" as="geometry" />
        </mxCell>
        <mxCell id="suyXKOmsgJLqjtezGQy3-10" style="edgeStyle=orthogonalEdgeStyle;rounded=0;orthogonalLoop=1;jettySize=auto;html=1;exitX=0.5;exitY=1;exitDx=0;exitDy=0;" edge="1" parent="1" source="suyXKOmsgJLqjtezGQy3-3">
          <mxGeometry relative="1" as="geometry">
            <mxPoint x="419.8333333333335" y="240" as="targetPoint" />
          </mxGeometry>
        </mxCell>
        <mxCell id="suyXKOmsgJLqjtezGQy3-3" value="Dialog Message For options" style="rounded=1;whiteSpace=wrap;html=1;" vertex="1" parent="1">
          <mxGeometry x="360" y="170" width="120" height="50" as="geometry" />
        </mxCell>
        <mxCell id="suyXKOmsgJLqjtezGQy3-4" value="1. Add a Teacher &lt;br&gt;2.Search a Teacher &lt;br&gt;3. List Teachers&lt;br&gt;4.Remove a teacher&lt;br&gt;5. Exit" style="text;html=1;strokeColor=none;fillColor=none;align=center;verticalAlign=middle;whiteSpace=wrap;rounded=0;" vertex="1" parent="1">
          <mxGeometry x="480" y="180" width="190" height="30" as="geometry" />
        </mxCell>
        <mxCell id="suyXKOmsgJLqjtezGQy3-11" value="" style="rounded=1;whiteSpace=wrap;html=1;" vertex="1" parent="1">
          <mxGeometry x="332.5" y="357" width="175" height="260" as="geometry" />
        </mxCell>
        <mxCell id="suyXKOmsgJLqjtezGQy3-46" style="edgeStyle=orthogonalEdgeStyle;rounded=0;orthogonalLoop=1;jettySize=auto;html=1;" edge="1" parent="1" source="suyXKOmsgJLqjtezGQy3-5">
          <mxGeometry relative="1" as="geometry">
            <mxPoint x="630.0000000000002" y="392" as="targetPoint" />
          </mxGeometry>
        </mxCell>
        <mxCell id="suyXKOmsgJLqjtezGQy3-5" value="Add a teacher" style="rounded=1;whiteSpace=wrap;html=1;" vertex="1" parent="1">
          <mxGeometry x="380" y="377" width="80" height="30" as="geometry" />
        </mxCell>
        <mxCell id="suyXKOmsgJLqjtezGQy3-204" style="edgeStyle=orthogonalEdgeStyle;rounded=0;orthogonalLoop=1;jettySize=auto;html=1;" edge="1" parent="1" source="suyXKOmsgJLqjtezGQy3-6">
          <mxGeometry relative="1" as="geometry">
            <mxPoint x="630" y="442" as="targetPoint" />
          </mxGeometry>
        </mxCell>
        <mxCell id="suyXKOmsgJLqjtezGQy3-6" value="Search a Teacher" style="rounded=1;whiteSpace=wrap;html=1;" vertex="1" parent="1">
          <mxGeometry x="380" y="427" width="80" height="30" as="geometry" />
        </mxCell>
        <mxCell id="suyXKOmsgJLqjtezGQy3-205" style="edgeStyle=orthogonalEdgeStyle;rounded=0;orthogonalLoop=1;jettySize=auto;html=1;" edge="1" parent="1" source="suyXKOmsgJLqjtezGQy3-7">
          <mxGeometry relative="1" as="geometry">
            <mxPoint x="630" y="492" as="targetPoint" />
          </mxGeometry>
        </mxCell>
        <mxCell id="suyXKOmsgJLqjtezGQy3-7" value="List Teachers" style="rounded=1;whiteSpace=wrap;html=1;" vertex="1" parent="1">
          <mxGeometry x="380" y="477" width="80" height="30" as="geometry" />
        </mxCell>
        <mxCell id="suyXKOmsgJLqjtezGQy3-206" style="edgeStyle=orthogonalEdgeStyle;rounded=0;orthogonalLoop=1;jettySize=auto;html=1;" edge="1" parent="1" source="suyXKOmsgJLqjtezGQy3-8">
          <mxGeometry relative="1" as="geometry">
            <mxPoint x="630" y="542" as="targetPoint" />
          </mxGeometry>
        </mxCell>
        <mxCell id="suyXKOmsgJLqjtezGQy3-8" value="Remove a Teacher" style="rounded=1;whiteSpace=wrap;html=1;" vertex="1" parent="1">
          <mxGeometry x="380" y="527" width="80" height="30" as="geometry" />
        </mxCell>
        <mxCell id="suyXKOmsgJLqjtezGQy3-212" style="edgeStyle=orthogonalEdgeStyle;rounded=0;orthogonalLoop=1;jettySize=auto;html=1;entryX=0.5;entryY=0;entryDx=0;entryDy=0;" edge="1" parent="1" source="suyXKOmsgJLqjtezGQy3-9" target="suyXKOmsgJLqjtezGQy3-211">
          <mxGeometry relative="1" as="geometry" />
        </mxCell>
        <mxCell id="suyXKOmsgJLqjtezGQy3-9" value="Exit" style="rounded=1;whiteSpace=wrap;html=1;" vertex="1" parent="1">
          <mxGeometry x="380" y="577" width="80" height="30" as="geometry" />
        </mxCell>
        <mxCell id="suyXKOmsgJLqjtezGQy3-27" style="edgeStyle=orthogonalEdgeStyle;rounded=0;orthogonalLoop=1;jettySize=auto;html=1;exitX=0.5;exitY=1;exitDx=0;exitDy=0;entryX=0.5;entryY=0;entryDx=0;entryDy=0;" edge="1" parent="1" source="suyXKOmsgJLqjtezGQy3-12" target="suyXKOmsgJLqjtezGQy3-16">
          <mxGeometry relative="1" as="geometry" />
        </mxCell>
        <mxCell id="suyXKOmsgJLqjtezGQy3-12" value="New Object of Teacher" style="rounded=1;whiteSpace=wrap;html=1;" vertex="1" parent="1">
          <mxGeometry x="995" y="380" width="70" height="30" as="geometry" />
        </mxCell>
        <mxCell id="suyXKOmsgJLqjtezGQy3-14" style="edgeStyle=orthogonalEdgeStyle;rounded=0;orthogonalLoop=1;jettySize=auto;html=1;exitX=0.5;exitY=1;exitDx=0;exitDy=0;" edge="1" parent="1" source="suyXKOmsgJLqjtezGQy3-13">
          <mxGeometry relative="1" as="geometry">
            <mxPoint x="420" y="310" as="targetPoint" />
          </mxGeometry>
        </mxCell>
        <mxCell id="suyXKOmsgJLqjtezGQy3-13" value="Declaring Teacher ArrayList" style="rounded=1;whiteSpace=wrap;html=1;" vertex="1" parent="1">
          <mxGeometry x="370" y="240" width="100" height="30" as="geometry" />
        </mxCell>
        <mxCell id="suyXKOmsgJLqjtezGQy3-28" style="edgeStyle=orthogonalEdgeStyle;rounded=0;orthogonalLoop=1;jettySize=auto;html=1;exitX=0.5;exitY=1;exitDx=0;exitDy=0;entryX=0.5;entryY=0;entryDx=0;entryDy=0;" edge="1" parent="1" source="suyXKOmsgJLqjtezGQy3-16" target="suyXKOmsgJLqjtezGQy3-17">
          <mxGeometry relative="1" as="geometry" />
        </mxCell>
        <mxCell id="suyXKOmsgJLqjtezGQy3-16" value="&lt;span style=&quot;font-size: 10px;&quot;&gt;setName= inputName&lt;/span&gt;" style="rounded=1;whiteSpace=wrap;html=1;" vertex="1" parent="1">
          <mxGeometry x="995" y="420" width="70" height="30" as="geometry" />
        </mxCell>
        <mxCell id="suyXKOmsgJLqjtezGQy3-30" style="edgeStyle=orthogonalEdgeStyle;rounded=0;orthogonalLoop=1;jettySize=auto;html=1;exitX=0.5;exitY=1;exitDx=0;exitDy=0;entryX=0.5;entryY=0;entryDx=0;entryDy=0;" edge="1" parent="1" source="suyXKOmsgJLqjtezGQy3-17" target="suyXKOmsgJLqjtezGQy3-18">
          <mxGeometry relative="1" as="geometry" />
        </mxCell>
        <mxCell id="suyXKOmsgJLqjtezGQy3-17" value="&lt;font style=&quot;font-size: 10px;&quot;&gt;setBoD= inputBoD&lt;/font&gt;" style="rounded=1;whiteSpace=wrap;html=1;" vertex="1" parent="1">
          <mxGeometry x="995" y="460" width="70" height="30" as="geometry" />
        </mxCell>
        <mxCell id="suyXKOmsgJLqjtezGQy3-31" style="edgeStyle=orthogonalEdgeStyle;rounded=0;orthogonalLoop=1;jettySize=auto;html=1;exitX=0.5;exitY=1;exitDx=0;exitDy=0;" edge="1" parent="1" source="suyXKOmsgJLqjtezGQy3-18" target="suyXKOmsgJLqjtezGQy3-19">
          <mxGeometry relative="1" as="geometry" />
        </mxCell>
        <mxCell id="suyXKOmsgJLqjtezGQy3-18" value="&lt;font style=&quot;font-size: 10px;&quot;&gt;setSubject= inputSubject&lt;/font&gt;" style="rounded=1;whiteSpace=wrap;html=1;" vertex="1" parent="1">
          <mxGeometry x="995" y="500" width="70" height="30" as="geometry" />
        </mxCell>
        <mxCell id="suyXKOmsgJLqjtezGQy3-32" style="edgeStyle=orthogonalEdgeStyle;rounded=0;orthogonalLoop=1;jettySize=auto;html=1;exitX=0.5;exitY=1;exitDx=0;exitDy=0;entryX=0.5;entryY=0;entryDx=0;entryDy=0;" edge="1" parent="1" source="suyXKOmsgJLqjtezGQy3-19" target="suyXKOmsgJLqjtezGQy3-20">
          <mxGeometry relative="1" as="geometry" />
        </mxCell>
        <mxCell id="suyXKOmsgJLqjtezGQy3-19" value="&lt;span style=&quot;font-size: 10px;&quot;&gt;setSalary= inputSalary&lt;/span&gt;" style="rounded=1;whiteSpace=wrap;html=1;" vertex="1" parent="1">
          <mxGeometry x="995" y="540" width="70" height="30" as="geometry" />
        </mxCell>
        <mxCell id="suyXKOmsgJLqjtezGQy3-33" style="edgeStyle=orthogonalEdgeStyle;rounded=0;orthogonalLoop=1;jettySize=auto;html=1;exitX=0.5;exitY=1;exitDx=0;exitDy=0;" edge="1" parent="1" source="suyXKOmsgJLqjtezGQy3-20" target="suyXKOmsgJLqjtezGQy3-21">
          <mxGeometry relative="1" as="geometry" />
        </mxCell>
        <mxCell id="suyXKOmsgJLqjtezGQy3-20" value="&lt;span style=&quot;font-size: 10px;&quot;&gt;setAddress= inputAddress&lt;/span&gt;" style="rounded=1;whiteSpace=wrap;html=1;" vertex="1" parent="1">
          <mxGeometry x="995" y="580" width="70" height="30" as="geometry" />
        </mxCell>
        <mxCell id="suyXKOmsgJLqjtezGQy3-34" style="edgeStyle=orthogonalEdgeStyle;rounded=0;orthogonalLoop=1;jettySize=auto;html=1;exitX=0.5;exitY=1;exitDx=0;exitDy=0;" edge="1" parent="1" source="suyXKOmsgJLqjtezGQy3-21" target="suyXKOmsgJLqjtezGQy3-22">
          <mxGeometry relative="1" as="geometry" />
        </mxCell>
        <mxCell id="suyXKOmsgJLqjtezGQy3-21" value="&lt;span style=&quot;font-size: 10px;&quot;&gt;setCity= inputCity&lt;/span&gt;" style="rounded=1;whiteSpace=wrap;html=1;" vertex="1" parent="1">
          <mxGeometry x="995" y="620" width="70" height="30" as="geometry" />
        </mxCell>
        <mxCell id="suyXKOmsgJLqjtezGQy3-173" value="" style="edgeStyle=orthogonalEdgeStyle;rounded=0;orthogonalLoop=1;jettySize=auto;html=1;" edge="1" parent="1" source="suyXKOmsgJLqjtezGQy3-22" target="suyXKOmsgJLqjtezGQy3-172">
          <mxGeometry relative="1" as="geometry" />
        </mxCell>
        <mxCell id="suyXKOmsgJLqjtezGQy3-22" value="&lt;span style=&quot;font-size: 10px;&quot;&gt;setCountry= inputCountry&lt;/span&gt;" style="rounded=1;whiteSpace=wrap;html=1;" vertex="1" parent="1">
          <mxGeometry x="995" y="660" width="70" height="40" as="geometry" />
        </mxCell>
        <mxCell id="suyXKOmsgJLqjtezGQy3-38" style="edgeStyle=orthogonalEdgeStyle;rounded=0;orthogonalLoop=1;jettySize=auto;html=1;exitX=0.5;exitY=1;exitDx=0;exitDy=0;entryX=0.5;entryY=0;entryDx=0;entryDy=0;" edge="1" parent="1" source="suyXKOmsgJLqjtezGQy3-37" target="suyXKOmsgJLqjtezGQy3-11">
          <mxGeometry relative="1" as="geometry" />
        </mxCell>
        <mxCell id="suyXKOmsgJLqjtezGQy3-37" value="Teacher ArrayList" style="rounded=0;whiteSpace=wrap;html=1;" vertex="1" parent="1">
          <mxGeometry x="365" y="310" width="110" height="27" as="geometry" />
        </mxCell>
        <mxCell id="suyXKOmsgJLqjtezGQy3-42" value="Teacher&lt;br&gt;Object.add()" style="rounded=1;whiteSpace=wrap;html=1;" vertex="1" parent="1">
          <mxGeometry x="550" y="290" width="80" height="30" as="geometry" />
        </mxCell>
        <mxCell id="suyXKOmsgJLqjtezGQy3-43" value="&lt;font style=&quot;font-size: 12px;&quot;&gt;Add()&lt;/font&gt;" style="text;html=1;strokeColor=none;fillColor=none;align=center;verticalAlign=middle;whiteSpace=wrap;rounded=0;" vertex="1" parent="1">
          <mxGeometry x="1000" y="327" width="60" height="30" as="geometry" />
        </mxCell>
        <mxCell id="suyXKOmsgJLqjtezGQy3-202" style="edgeStyle=orthogonalEdgeStyle;rounded=0;orthogonalLoop=1;jettySize=auto;html=1;" edge="1" parent="1" source="suyXKOmsgJLqjtezGQy3-44">
          <mxGeometry relative="1" as="geometry">
            <mxPoint x="930" y="395" as="targetPoint" />
          </mxGeometry>
        </mxCell>
        <mxCell id="suyXKOmsgJLqjtezGQy3-44" value="Add()" style="rounded=0;whiteSpace=wrap;html=1;" vertex="1" parent="1">
          <mxGeometry x="640" y="380" width="94" height="30" as="geometry" />
        </mxCell>
        <mxCell id="suyXKOmsgJLqjtezGQy3-203" style="edgeStyle=orthogonalEdgeStyle;rounded=0;orthogonalLoop=1;jettySize=auto;html=1;entryX=0.25;entryY=0;entryDx=0;entryDy=0;" edge="1" parent="1" source="suyXKOmsgJLqjtezGQy3-48" target="suyXKOmsgJLqjtezGQy3-69">
          <mxGeometry relative="1" as="geometry">
            <mxPoint x="1180" y="280" as="targetPoint" />
            <Array as="points">
              <mxPoint x="820" y="438" />
              <mxPoint x="820" y="270" />
              <mxPoint x="1320" y="270" />
              <mxPoint x="1320" y="280" />
            </Array>
          </mxGeometry>
        </mxCell>
        <mxCell id="suyXKOmsgJLqjtezGQy3-48" value="Search()" style="rounded=0;whiteSpace=wrap;html=1;" vertex="1" parent="1">
          <mxGeometry x="640" y="423" width="94" height="30" as="geometry" />
        </mxCell>
        <mxCell id="suyXKOmsgJLqjtezGQy3-207" style="edgeStyle=orthogonalEdgeStyle;rounded=0;orthogonalLoop=1;jettySize=auto;html=1;entryX=0.5;entryY=0;entryDx=0;entryDy=0;" edge="1" parent="1" source="suyXKOmsgJLqjtezGQy3-49" target="suyXKOmsgJLqjtezGQy3-139">
          <mxGeometry relative="1" as="geometry">
            <mxPoint x="60" y="280" as="targetPoint" />
            <Array as="points">
              <mxPoint x="810" y="485" />
              <mxPoint x="810" y="710" />
              <mxPoint x="260" y="710" />
              <mxPoint x="260" y="280" />
              <mxPoint x="-215" y="280" />
            </Array>
          </mxGeometry>
        </mxCell>
        <mxCell id="suyXKOmsgJLqjtezGQy3-49" value="List()" style="rounded=0;whiteSpace=wrap;html=1;" vertex="1" parent="1">
          <mxGeometry x="640" y="470" width="94" height="30" as="geometry" />
        </mxCell>
        <mxCell id="suyXKOmsgJLqjtezGQy3-209" style="edgeStyle=orthogonalEdgeStyle;rounded=0;orthogonalLoop=1;jettySize=auto;html=1;entryX=0.75;entryY=0;entryDx=0;entryDy=0;" edge="1" parent="1">
          <mxGeometry relative="1" as="geometry">
            <mxPoint x="97" y="312.5" as="targetPoint" />
            <mxPoint x="677.090909090909" y="549" as="sourcePoint" />
            <Array as="points">
              <mxPoint x="677" y="694" />
              <mxPoint x="270" y="694" />
              <mxPoint x="270" y="259" />
              <mxPoint x="97" y="259" />
            </Array>
          </mxGeometry>
        </mxCell>
        <mxCell id="suyXKOmsgJLqjtezGQy3-50" value="Remove()" style="rounded=0;whiteSpace=wrap;html=1;" vertex="1" parent="1">
          <mxGeometry x="640" y="520" width="94" height="30" as="geometry" />
        </mxCell>
        <mxCell id="suyXKOmsgJLqjtezGQy3-54" style="edgeStyle=orthogonalEdgeStyle;rounded=0;orthogonalLoop=1;jettySize=auto;html=1;exitX=0.5;exitY=1;exitDx=0;exitDy=0;entryX=0.5;entryY=0;entryDx=0;entryDy=0;" edge="1" source="suyXKOmsgJLqjtezGQy3-55" target="suyXKOmsgJLqjtezGQy3-57" parent="1">
          <mxGeometry relative="1" as="geometry" />
        </mxCell>
        <mxCell id="suyXKOmsgJLqjtezGQy3-55" value="Input Dialog Box" style="rounded=1;whiteSpace=wrap;html=1;" vertex="1" parent="1">
          <mxGeometry x="1299" y="364" width="70" height="30" as="geometry" />
        </mxCell>
        <mxCell id="suyXKOmsgJLqjtezGQy3-114" value="" style="edgeStyle=orthogonalEdgeStyle;rounded=0;orthogonalLoop=1;jettySize=auto;html=1;" edge="1" parent="1" source="suyXKOmsgJLqjtezGQy3-57" target="suyXKOmsgJLqjtezGQy3-113">
          <mxGeometry relative="1" as="geometry" />
        </mxCell>
        <mxCell id="suyXKOmsgJLqjtezGQy3-57" value="&lt;span style=&quot;font-size: 10px;&quot;&gt;Name Input to Search&lt;/span&gt;" style="rounded=1;whiteSpace=wrap;html=1;" vertex="1" parent="1">
          <mxGeometry x="1299" y="413" width="70" height="30" as="geometry" />
        </mxCell>
        <mxCell id="suyXKOmsgJLqjtezGQy3-58" style="edgeStyle=orthogonalEdgeStyle;rounded=0;orthogonalLoop=1;jettySize=auto;html=1;exitX=0.5;exitY=1;exitDx=0;exitDy=0;entryX=0.5;entryY=0;entryDx=0;entryDy=0;" edge="1" source="suyXKOmsgJLqjtezGQy3-59" target="suyXKOmsgJLqjtezGQy3-61" parent="1">
          <mxGeometry relative="1" as="geometry" />
        </mxCell>
        <mxCell id="suyXKOmsgJLqjtezGQy3-59" value="&lt;font style=&quot;font-size: 10px;&quot;&gt;indexOf&lt;br&gt;(Name)&lt;/font&gt;" style="rounded=1;whiteSpace=wrap;html=1;" vertex="1" parent="1">
          <mxGeometry x="1299" y="509" width="70" height="30" as="geometry" />
        </mxCell>
        <mxCell id="suyXKOmsgJLqjtezGQy3-112" style="edgeStyle=orthogonalEdgeStyle;rounded=0;orthogonalLoop=1;jettySize=auto;html=1;entryX=0.5;entryY=0;entryDx=0;entryDy=0;" edge="1" parent="1" source="suyXKOmsgJLqjtezGQy3-61" target="suyXKOmsgJLqjtezGQy3-70">
          <mxGeometry relative="1" as="geometry" />
        </mxCell>
        <mxCell id="suyXKOmsgJLqjtezGQy3-61" value="&lt;span style=&quot;font-size: 10px;&quot;&gt;lastIndexof (Name)&lt;/span&gt;" style="rounded=1;whiteSpace=wrap;html=1;" vertex="1" parent="1">
          <mxGeometry x="1299" y="547" width="70" height="30" as="geometry" />
        </mxCell>
        <mxCell id="suyXKOmsgJLqjtezGQy3-69" value="&lt;font style=&quot;font-size: 12px;&quot;&gt;Search()&lt;/font&gt;" style="text;html=1;strokeColor=none;fillColor=none;align=center;verticalAlign=middle;whiteSpace=wrap;rounded=0;" vertex="1" parent="1">
          <mxGeometry x="1304" y="320" width="60" height="30" as="geometry" />
        </mxCell>
        <mxCell id="suyXKOmsgJLqjtezGQy3-83" value="" style="edgeStyle=orthogonalEdgeStyle;rounded=0;orthogonalLoop=1;jettySize=auto;html=1;" edge="1" parent="1" source="suyXKOmsgJLqjtezGQy3-70" target="suyXKOmsgJLqjtezGQy3-78">
          <mxGeometry relative="1" as="geometry" />
        </mxCell>
        <mxCell id="suyXKOmsgJLqjtezGQy3-90" style="edgeStyle=orthogonalEdgeStyle;rounded=0;orthogonalLoop=1;jettySize=auto;html=1;entryX=0.5;entryY=0;entryDx=0;entryDy=0;" edge="1" parent="1" source="suyXKOmsgJLqjtezGQy3-70" target="suyXKOmsgJLqjtezGQy3-85">
          <mxGeometry relative="1" as="geometry" />
        </mxCell>
        <mxCell id="suyXKOmsgJLqjtezGQy3-70" value="&lt;font style=&quot;font-size: 6px;&quot;&gt;condition?&lt;/font&gt;" style="rhombus;whiteSpace=wrap;html=1;" vertex="1" parent="1">
          <mxGeometry x="1299" y="599" width="70" height="38" as="geometry" />
        </mxCell>
        <mxCell id="suyXKOmsgJLqjtezGQy3-71" value="&lt;font style=&quot;font-size: 8px;&quot;&gt;&amp;nbsp;indexOf(Name) ==lastIndexofName&lt;/font&gt;" style="text;html=1;strokeColor=none;fillColor=none;align=center;verticalAlign=middle;whiteSpace=wrap;rounded=0;" vertex="1" parent="1">
          <mxGeometry x="1222" y="575" width="60" height="30" as="geometry" />
        </mxCell>
        <mxCell id="suyXKOmsgJLqjtezGQy3-78" value="display matched object Details" style="rounded=1;whiteSpace=wrap;html=1;" vertex="1" parent="1">
          <mxGeometry x="1210" y="645" width="80" height="45" as="geometry" />
        </mxCell>
        <mxCell id="suyXKOmsgJLqjtezGQy3-94" value="" style="edgeStyle=orthogonalEdgeStyle;rounded=0;orthogonalLoop=1;jettySize=auto;html=1;" edge="1" parent="1" source="suyXKOmsgJLqjtezGQy3-85" target="suyXKOmsgJLqjtezGQy3-92">
          <mxGeometry relative="1" as="geometry" />
        </mxCell>
        <mxCell id="suyXKOmsgJLqjtezGQy3-85" value="linear search for duplicates between indexOf() and lastIndexOf() value" style="rounded=1;whiteSpace=wrap;html=1;" vertex="1" parent="1">
          <mxGeometry x="1347" y="677.75" width="108" height="68.25" as="geometry" />
        </mxCell>
        <mxCell id="suyXKOmsgJLqjtezGQy3-91" value="else" style="text;html=1;strokeColor=none;fillColor=none;align=center;verticalAlign=middle;whiteSpace=wrap;rounded=0;" vertex="1" parent="1">
          <mxGeometry x="1363" y="623" width="60" height="30" as="geometry" />
        </mxCell>
        <mxCell id="suyXKOmsgJLqjtezGQy3-103" style="edgeStyle=orthogonalEdgeStyle;rounded=0;orthogonalLoop=1;jettySize=auto;html=1;exitX=1;exitY=0.5;exitDx=0;exitDy=0;" edge="1" parent="1" source="suyXKOmsgJLqjtezGQy3-92" target="suyXKOmsgJLqjtezGQy3-95">
          <mxGeometry relative="1" as="geometry" />
        </mxCell>
        <mxCell id="suyXKOmsgJLqjtezGQy3-92" value="condition?" style="rhombus;whiteSpace=wrap;html=1;" vertex="1" parent="1">
          <mxGeometry x="1304" y="779" width="80" height="80" as="geometry" />
        </mxCell>
        <mxCell id="suyXKOmsgJLqjtezGQy3-95" value="add indices to the duplicates" style="rounded=1;whiteSpace=wrap;html=1;" vertex="1" parent="1">
          <mxGeometry x="1367" y="863" width="88" height="60" as="geometry" />
        </mxCell>
        <mxCell id="suyXKOmsgJLqjtezGQy3-113" value="&lt;span style=&quot;font-size: 10px;&quot;&gt;reads Teacher ArrayList&lt;/span&gt;" style="rounded=1;whiteSpace=wrap;html=1;" vertex="1" parent="1">
          <mxGeometry x="1299" y="454" width="70" height="30" as="geometry" />
        </mxCell>
        <mxCell id="suyXKOmsgJLqjtezGQy3-117" value="" style="endArrow=classic;html=1;rounded=0;entryX=0.579;entryY=0.024;entryDx=0;entryDy=0;entryPerimeter=0;" edge="1" parent="1">
          <mxGeometry width="50" height="50" relative="1" as="geometry">
            <mxPoint x="1334" y="486" as="sourcePoint" />
            <mxPoint x="1333.74" y="508.72" as="targetPoint" />
          </mxGeometry>
        </mxCell>
        <mxCell id="suyXKOmsgJLqjtezGQy3-121" value="" style="endArrow=none;html=1;rounded=0;entryX=0.5;entryY=1;entryDx=0;entryDy=0;" edge="1" parent="1" target="suyXKOmsgJLqjtezGQy3-78">
          <mxGeometry width="50" height="50" relative="1" as="geometry">
            <mxPoint x="1366" y="893" as="sourcePoint" />
            <mxPoint x="1310" y="805.7165354330709" as="targetPoint" />
            <Array as="points">
              <mxPoint x="1247" y="890" />
              <mxPoint x="1247" y="820" />
              <mxPoint x="1247" y="770" />
            </Array>
          </mxGeometry>
        </mxCell>
        <mxCell id="suyXKOmsgJLqjtezGQy3-122" value="" style="rounded=1;whiteSpace=wrap;html=1;" vertex="1" parent="1">
          <mxGeometry x="-44" y="349" width="266" height="501" as="geometry" />
        </mxCell>
        <mxCell id="suyXKOmsgJLqjtezGQy3-130" style="edgeStyle=orthogonalEdgeStyle;rounded=0;orthogonalLoop=1;jettySize=auto;html=1;exitX=0.5;exitY=1;exitDx=0;exitDy=0;" edge="1" target="suyXKOmsgJLqjtezGQy3-133" parent="1">
          <mxGeometry relative="1" as="geometry">
            <mxPoint x="-215" y="523.5" as="sourcePoint" />
          </mxGeometry>
        </mxCell>
        <mxCell id="suyXKOmsgJLqjtezGQy3-132" style="edgeStyle=orthogonalEdgeStyle;rounded=0;orthogonalLoop=1;jettySize=auto;html=1;exitX=0.5;exitY=1;exitDx=0;exitDy=0;entryX=0.5;entryY=0;entryDx=0;entryDy=0;" edge="1" target="suyXKOmsgJLqjtezGQy3-135" parent="1">
          <mxGeometry relative="1" as="geometry">
            <mxPoint x="-215" y="563.5" as="sourcePoint" />
          </mxGeometry>
        </mxCell>
        <mxCell id="suyXKOmsgJLqjtezGQy3-134" style="edgeStyle=orthogonalEdgeStyle;rounded=0;orthogonalLoop=1;jettySize=auto;html=1;exitX=0.5;exitY=1;exitDx=0;exitDy=0;" edge="1" target="suyXKOmsgJLqjtezGQy3-137" parent="1">
          <mxGeometry relative="1" as="geometry">
            <mxPoint x="-215" y="603.5" as="sourcePoint" />
          </mxGeometry>
        </mxCell>
        <mxCell id="suyXKOmsgJLqjtezGQy3-139" value="&lt;font style=&quot;font-size: 12px;&quot;&gt;List()&lt;/font&gt;" style="text;html=1;strokeColor=none;fillColor=none;align=center;verticalAlign=middle;whiteSpace=wrap;rounded=0;" vertex="1" parent="1">
          <mxGeometry x="-245" y="311.5" width="60" height="30" as="geometry" />
        </mxCell>
        <mxCell id="suyXKOmsgJLqjtezGQy3-140" style="edgeStyle=orthogonalEdgeStyle;rounded=0;orthogonalLoop=1;jettySize=auto;html=1;exitX=0.5;exitY=1;exitDx=0;exitDy=0;entryX=0.5;entryY=0;entryDx=0;entryDy=0;" edge="1" source="suyXKOmsgJLqjtezGQy3-141" target="suyXKOmsgJLqjtezGQy3-143" parent="1">
          <mxGeometry relative="1" as="geometry" />
        </mxCell>
        <mxCell id="suyXKOmsgJLqjtezGQy3-141" value="Input Dialog Box" style="rounded=1;whiteSpace=wrap;html=1;" vertex="1" parent="1">
          <mxGeometry x="54" y="357.5" width="70" height="30" as="geometry" />
        </mxCell>
        <mxCell id="suyXKOmsgJLqjtezGQy3-142" value="" style="edgeStyle=orthogonalEdgeStyle;rounded=0;orthogonalLoop=1;jettySize=auto;html=1;" edge="1" source="suyXKOmsgJLqjtezGQy3-143" target="suyXKOmsgJLqjtezGQy3-160" parent="1">
          <mxGeometry relative="1" as="geometry" />
        </mxCell>
        <mxCell id="suyXKOmsgJLqjtezGQy3-143" value="&lt;span style=&quot;font-size: 10px;&quot;&gt;id Input to match&lt;/span&gt;" style="rounded=1;whiteSpace=wrap;html=1;" vertex="1" parent="1">
          <mxGeometry x="54" y="406.5" width="70" height="30" as="geometry" />
        </mxCell>
        <mxCell id="suyXKOmsgJLqjtezGQy3-148" value="&lt;font style=&quot;font-size: 12px;&quot;&gt;Remove()&lt;/font&gt;" style="text;html=1;strokeColor=none;fillColor=none;align=center;verticalAlign=middle;whiteSpace=wrap;rounded=0;" vertex="1" parent="1">
          <mxGeometry x="59" y="313.5" width="60" height="30" as="geometry" />
        </mxCell>
        <mxCell id="suyXKOmsgJLqjtezGQy3-149" value="" style="edgeStyle=orthogonalEdgeStyle;rounded=0;orthogonalLoop=1;jettySize=auto;html=1;" edge="1" source="suyXKOmsgJLqjtezGQy3-151" target="suyXKOmsgJLqjtezGQy3-153" parent="1">
          <mxGeometry relative="1" as="geometry" />
        </mxCell>
        <mxCell id="suyXKOmsgJLqjtezGQy3-168" style="edgeStyle=orthogonalEdgeStyle;rounded=0;orthogonalLoop=1;jettySize=auto;html=1;" edge="1" parent="1" source="suyXKOmsgJLqjtezGQy3-151" target="suyXKOmsgJLqjtezGQy3-155">
          <mxGeometry relative="1" as="geometry">
            <Array as="points">
              <mxPoint x="156" y="555" />
            </Array>
          </mxGeometry>
        </mxCell>
        <mxCell id="suyXKOmsgJLqjtezGQy3-151" value="&lt;font style=&quot;font-size: 6px;&quot;&gt;condition?&lt;/font&gt;" style="rhombus;whiteSpace=wrap;html=1;" vertex="1" parent="1">
          <mxGeometry x="51" y="520.5" width="76" height="69.5" as="geometry" />
        </mxCell>
        <mxCell id="suyXKOmsgJLqjtezGQy3-152" value="&lt;span style=&quot;font-size: 8px;&quot;&gt;id== Teacher,getid()&lt;/span&gt;" style="text;html=1;strokeColor=none;fillColor=none;align=center;verticalAlign=middle;whiteSpace=wrap;rounded=0;" vertex="1" parent="1">
          <mxGeometry x="-24" y="522.5" width="60" height="30" as="geometry" />
        </mxCell>
        <mxCell id="suyXKOmsgJLqjtezGQy3-171" value="" style="edgeStyle=orthogonalEdgeStyle;rounded=0;orthogonalLoop=1;jettySize=auto;html=1;" edge="1" parent="1" source="suyXKOmsgJLqjtezGQy3-153" target="suyXKOmsgJLqjtezGQy3-169">
          <mxGeometry relative="1" as="geometry">
            <Array as="points">
              <mxPoint x="5" y="715" />
              <mxPoint x="84" y="715" />
            </Array>
          </mxGeometry>
        </mxCell>
        <mxCell id="suyXKOmsgJLqjtezGQy3-153" value="display matched object Details" style="rounded=1;whiteSpace=wrap;html=1;" vertex="1" parent="1">
          <mxGeometry x="-35" y="638.5" width="80" height="45" as="geometry" />
        </mxCell>
        <mxCell id="suyXKOmsgJLqjtezGQy3-170" value="" style="edgeStyle=orthogonalEdgeStyle;rounded=0;orthogonalLoop=1;jettySize=auto;html=1;" edge="1" parent="1" source="suyXKOmsgJLqjtezGQy3-155" target="suyXKOmsgJLqjtezGQy3-169">
          <mxGeometry relative="1" as="geometry">
            <Array as="points">
              <mxPoint x="156" y="713" />
              <mxPoint x="84" y="713" />
            </Array>
          </mxGeometry>
        </mxCell>
        <mxCell id="suyXKOmsgJLqjtezGQy3-155" value="Print: No Match Found against id" style="rounded=1;whiteSpace=wrap;html=1;" vertex="1" parent="1">
          <mxGeometry x="102" y="637.37" width="108" height="46.63" as="geometry" />
        </mxCell>
        <mxCell id="suyXKOmsgJLqjtezGQy3-156" value="else" style="text;html=1;strokeColor=none;fillColor=none;align=center;verticalAlign=middle;whiteSpace=wrap;rounded=0;" vertex="1" parent="1">
          <mxGeometry x="140" y="545" width="60" height="30" as="geometry" />
        </mxCell>
        <mxCell id="suyXKOmsgJLqjtezGQy3-163" style="edgeStyle=orthogonalEdgeStyle;rounded=0;orthogonalLoop=1;jettySize=auto;html=1;entryX=0.5;entryY=0;entryDx=0;entryDy=0;" edge="1" parent="1" source="suyXKOmsgJLqjtezGQy3-160" target="suyXKOmsgJLqjtezGQy3-151">
          <mxGeometry relative="1" as="geometry" />
        </mxCell>
        <mxCell id="suyXKOmsgJLqjtezGQy3-160" value="&lt;span style=&quot;font-size: 10px;&quot;&gt;reads Teacher ArrayList&lt;/span&gt;" style="rounded=1;whiteSpace=wrap;html=1;" vertex="1" parent="1">
          <mxGeometry x="54" y="447.5" width="70" height="30" as="geometry" />
        </mxCell>
        <mxCell id="suyXKOmsgJLqjtezGQy3-169" value="return to menu" style="ellipse;whiteSpace=wrap;html=1;aspect=fixed;" vertex="1" parent="1">
          <mxGeometry x="44" y="746" width="80" height="80" as="geometry" />
        </mxCell>
        <mxCell id="suyXKOmsgJLqjtezGQy3-175" value="" style="edgeStyle=orthogonalEdgeStyle;rounded=0;orthogonalLoop=1;jettySize=auto;html=1;" edge="1" parent="1" source="suyXKOmsgJLqjtezGQy3-172" target="suyXKOmsgJLqjtezGQy3-174">
          <mxGeometry relative="1" as="geometry" />
        </mxCell>
        <mxCell id="suyXKOmsgJLqjtezGQy3-172" value="Print (Added to the list)" style="rounded=1;whiteSpace=wrap;html=1;" vertex="1" parent="1">
          <mxGeometry x="979.5" y="715.5" width="101" height="39.5" as="geometry" />
        </mxCell>
        <mxCell id="suyXKOmsgJLqjtezGQy3-174" value="return to menu" style="ellipse;whiteSpace=wrap;html=1;aspect=fixed;" vertex="1" parent="1">
          <mxGeometry x="1000" y="772" width="60" height="60" as="geometry" />
        </mxCell>
        <mxCell id="suyXKOmsgJLqjtezGQy3-178" value="" style="edgeStyle=orthogonalEdgeStyle;rounded=0;orthogonalLoop=1;jettySize=auto;html=1;" edge="1" parent="1" source="suyXKOmsgJLqjtezGQy3-176" target="suyXKOmsgJLqjtezGQy3-177">
          <mxGeometry relative="1" as="geometry" />
        </mxCell>
        <mxCell id="suyXKOmsgJLqjtezGQy3-176" value="Fetches the teachers Array List" style="rounded=1;whiteSpace=wrap;html=1;" vertex="1" parent="1">
          <mxGeometry x="-260" y="359" width="90" height="49" as="geometry" />
        </mxCell>
        <mxCell id="suyXKOmsgJLqjtezGQy3-180" value="" style="edgeStyle=orthogonalEdgeStyle;rounded=0;orthogonalLoop=1;jettySize=auto;html=1;" edge="1" parent="1" source="suyXKOmsgJLqjtezGQy3-177" target="suyXKOmsgJLqjtezGQy3-179">
          <mxGeometry relative="1" as="geometry" />
        </mxCell>
        <mxCell id="suyXKOmsgJLqjtezGQy3-177" value="Iterates through the ArrayList" style="rounded=1;whiteSpace=wrap;html=1;" vertex="1" parent="1">
          <mxGeometry x="-260" y="516.5" width="90" height="49" as="geometry" />
        </mxCell>
        <mxCell id="suyXKOmsgJLqjtezGQy3-190" style="edgeStyle=orthogonalEdgeStyle;rounded=0;orthogonalLoop=1;jettySize=auto;html=1;" edge="1" parent="1" source="suyXKOmsgJLqjtezGQy3-179" target="suyXKOmsgJLqjtezGQy3-183">
          <mxGeometry relative="1" as="geometry">
            <Array as="points">
              <mxPoint x="-265" y="641" />
            </Array>
          </mxGeometry>
        </mxCell>
        <mxCell id="suyXKOmsgJLqjtezGQy3-191" style="edgeStyle=orthogonalEdgeStyle;rounded=0;orthogonalLoop=1;jettySize=auto;html=1;entryX=0.5;entryY=0;entryDx=0;entryDy=0;exitX=1;exitY=0.5;exitDx=0;exitDy=0;" edge="1" parent="1" source="suyXKOmsgJLqjtezGQy3-179">
          <mxGeometry relative="1" as="geometry">
            <mxPoint x="-171.06627425332454" y="640.939393939394" as="sourcePoint" />
            <mxPoint x="-138" y="744" as="targetPoint" />
            <Array as="points">
              <mxPoint x="-138" y="641" />
            </Array>
          </mxGeometry>
        </mxCell>
        <mxCell id="suyXKOmsgJLqjtezGQy3-179" value="&lt;font style=&quot;font-size: 6px;&quot;&gt;condition?&lt;/font&gt;" style="rhombus;whiteSpace=wrap;html=1;" vertex="1" parent="1">
          <mxGeometry x="-253" y="606.25" width="76" height="69.5" as="geometry" />
        </mxCell>
        <mxCell id="suyXKOmsgJLqjtezGQy3-185" style="edgeStyle=orthogonalEdgeStyle;rounded=0;orthogonalLoop=1;jettySize=auto;html=1;" edge="1" parent="1" source="suyXKOmsgJLqjtezGQy3-183">
          <mxGeometry relative="1" as="geometry">
            <mxPoint x="-215" y="491" as="targetPoint" />
            <Array as="points">
              <mxPoint x="-320" y="680" />
              <mxPoint x="-320" y="491" />
              <mxPoint x="-260" y="491" />
            </Array>
          </mxGeometry>
        </mxCell>
        <mxCell id="suyXKOmsgJLqjtezGQy3-183" value="Display details of the teacher" style="rounded=1;whiteSpace=wrap;html=1;" vertex="1" parent="1">
          <mxGeometry x="-310" y="744" width="90" height="40" as="geometry" />
        </mxCell>
        <mxCell id="suyXKOmsgJLqjtezGQy3-186" value="&lt;font style=&quot;font-size: 9px;&quot;&gt;entry found&lt;/font&gt;" style="text;html=1;strokeColor=none;fillColor=none;align=center;verticalAlign=middle;whiteSpace=wrap;rounded=0;" vertex="1" parent="1">
          <mxGeometry x="-310" y="611" width="60" height="30" as="geometry" />
        </mxCell>
        <mxCell id="suyXKOmsgJLqjtezGQy3-187" value="Menu" style="ellipse;whiteSpace=wrap;html=1;" vertex="1" parent="1">
          <mxGeometry x="-177" y="744" width="66" height="44" as="geometry" />
        </mxCell>
        <mxCell id="suyXKOmsgJLqjtezGQy3-193" value="&lt;font style=&quot;font-size: 9px;&quot;&gt;entry not found&lt;/font&gt;" style="text;html=1;strokeColor=none;fillColor=none;align=center;verticalAlign=middle;whiteSpace=wrap;rounded=0;" vertex="1" parent="1">
          <mxGeometry x="-200" y="600" width="60" height="30" as="geometry" />
        </mxCell>
        <mxCell id="suyXKOmsgJLqjtezGQy3-199" value="" style="edgeStyle=orthogonalEdgeStyle;rounded=0;orthogonalLoop=1;jettySize=auto;html=1;" edge="1" parent="1" source="suyXKOmsgJLqjtezGQy3-196" target="suyXKOmsgJLqjtezGQy3-198">
          <mxGeometry relative="1" as="geometry" />
        </mxCell>
        <mxCell id="suyXKOmsgJLqjtezGQy3-196" value="&lt;span style=&quot;font-size: 8px;&quot;&gt;teachers. size()&amp;gt; 0&lt;/span&gt;" style="rhombus;whiteSpace=wrap;html=1;" vertex="1" parent="1">
          <mxGeometry x="-245" y="424" width="60" height="60" as="geometry" />
        </mxCell>
        <mxCell id="suyXKOmsgJLqjtezGQy3-197" value="true" style="text;html=1;strokeColor=none;fillColor=none;align=center;verticalAlign=middle;whiteSpace=wrap;rounded=0;" vertex="1" parent="1">
          <mxGeometry x="-270" y="458" width="60" height="30" as="geometry" />
        </mxCell>
        <mxCell id="suyXKOmsgJLqjtezGQy3-201" style="edgeStyle=orthogonalEdgeStyle;rounded=0;orthogonalLoop=1;jettySize=auto;html=1;entryX=0.92;entryY=0.63;entryDx=0;entryDy=0;entryPerimeter=0;" edge="1" parent="1">
          <mxGeometry relative="1" as="geometry">
            <mxPoint x="-157.96969696969677" y="518" as="sourcePoint" />
            <mxPoint x="-138" y="640.8000000000001" as="targetPoint" />
          </mxGeometry>
        </mxCell>
        <mxCell id="suyXKOmsgJLqjtezGQy3-198" value="&lt;font style=&quot;font-size: 8px;&quot;&gt;print (Empty List)&lt;/font&gt;" style="rounded=1;whiteSpace=wrap;html=1;" vertex="1" parent="1">
          <mxGeometry x="-160" y="488" width="60" height="30" as="geometry" />
        </mxCell>
        <mxCell id="suyXKOmsgJLqjtezGQy3-211" value="EXIT" style="ellipse;whiteSpace=wrap;html=1;aspect=fixed;" vertex="1" parent="1">
          <mxGeometry x="380" y="880" width="80" height="80" as="geometry" />
        </mxCell>
      </root>
    </mxGraphModel>
  </diagram>
</mxfile>
